<svg xmlns="http://www.w3.org/2000/svg" xmlns:xlink="http://www.w3.org/1999/xlink" width="102.275" height="50.723" viewBox="0 0 102.275 50.723">
  <defs>
    <clipPath id="clip-path">
      <rect id="Rectangle_4" data-name="Rectangle 4" width="102.275" height="50.723" fill="none"/>
    </clipPath>
  </defs>
  <g id="Group_8649" data-name="Group 8649" transform="translate(-244 -614.524)">
    <g id="Group_5" data-name="Group 5" transform="translate(244 614.524)">
      <g id="Group_1" data-name="Group 1" clip-path="url(#clip-path)">
        <path id="Path_32" data-name="Path 32" d="M25.85-17.968l-2.79-2.826a15.279,15.279,0,0,1-3.214,2.349,8.16,8.16,0,0,1-3.885.865,7.74,7.74,0,0,1-3.267-.689,7.975,7.975,0,0,1-2.6-1.89,8.572,8.572,0,0,1-1.7-2.808,9.759,9.759,0,0,1-.6-3.444,9.615,9.615,0,0,1,.6-3.426,8.41,8.41,0,0,1,1.7-2.773,8.1,8.1,0,0,1,2.6-1.872,7.74,7.74,0,0,1,3.267-.689,8.193,8.193,0,0,1,3.779.848A13.937,13.937,0,0,1,22.883-32.1l2.79-3.214A16.8,16.8,0,0,0,23.8-36.864a12,12,0,0,0-2.155-1.219,12.536,12.536,0,0,0-2.561-.795A15.607,15.607,0,0,0,16-39.16a12.874,12.874,0,0,0-5.157,1.007A12.375,12.375,0,0,0,6.812-35.4a12.469,12.469,0,0,0-2.631,4.079,13.24,13.24,0,0,0-.936,4.98A13.117,13.117,0,0,0,4.2-21.323,12.446,12.446,0,0,0,6.83-17.279a12.317,12.317,0,0,0,3.974,2.7,12.543,12.543,0,0,0,5.015.989,15.418,15.418,0,0,0,3.161-.3,11.335,11.335,0,0,0,2.631-.883,13.165,13.165,0,0,0,2.243-1.377A15.933,15.933,0,0,0,25.85-17.968ZM43.192-38.913H39.166l-10.879,24.9h4.45l2.543-5.969H46.971l2.508,5.969h4.592Zm2.19,15.082H36.87l4.238-9.89Zm33.907,9.819-6.676-9.36A9.2,9.2,0,0,0,75-24.378a7.326,7.326,0,0,0,1.854-1.589,7.157,7.157,0,0,0,1.219-2.155,8.107,8.107,0,0,0,.442-2.773,8.128,8.128,0,0,0-.636-3.267,6.7,6.7,0,0,0-1.819-2.472,8.316,8.316,0,0,0-2.9-1.554,12.554,12.554,0,0,0-3.832-.547H58.309v24.724h4.309V-22.63h5.456l6.094,8.618ZM74.1-30.665a3.744,3.744,0,0,1-1.382,3.051A5.683,5.683,0,0,1,69-26.48H62.618v-8.336H68.96a6.052,6.052,0,0,1,3.791,1.046A3.689,3.689,0,0,1,74.1-30.665ZM94.23-34.71h7.841v-4.027H82.009v4.027H89.85v20.7h4.38Z" transform="translate(-1.161 58.76)" fill="#008287"/>
      </g>
      <path id="Path_2" data-name="Path 2" d="M87.991,3.061h0ZM98.475,0,93.8,7.579,91.02,3.061h-.25v5L93.737,12.6H93.8l2.672-4.089V8.5l0,0L102.036,0Z" transform="translate(-53.301)" fill="#41b3cf"/>
      <path id="Path_3" data-name="Path 3" d="M110.3,12.787V19.5h3.217V7.871Z" transform="translate(-66.817 -4.768)" fill="#1a1549"/>
      <path id="Path_4173" data-name="Path 4173" d="M0,0H3.2V11.669H0Z" transform="translate(34.522 3.061)" fill="#1a1549"/>
      <g id="Group_4" data-name="Group 4">
        <g id="Group_3" data-name="Group 3" clip-path="url(#clip-path)">
          <path id="Path_4" data-name="Path 4" d="M61.741,17.394l1.8-2.151a6.009,6.009,0,0,0,3.785,1.4c.866,0,1.333-.3,1.333-.8V15.81c0-.483-.384-.75-1.967-1.117-2.484-.567-4.4-1.267-4.4-3.667v-.034c0-2.167,1.718-3.734,4.518-3.734a7.341,7.341,0,0,1,4.8,1.551l-1.616,2.283a5.856,5.856,0,0,0-3.268-1.15c-.783,0-1.167.334-1.167.75v.034c0,.533.4.767,2.017,1.134,2.684.583,4.351,1.45,4.351,3.634v.034c0,2.384-1.883,3.8-4.718,3.8a8.15,8.15,0,0,1-5.467-1.934" transform="translate(-37.4 -4.397)" fill="#1a1549"/>
          <path id="Path_5" data-name="Path 5" d="M30.262,7.766h3.417l2.784,4.518,2.784-4.518h3.417V19.435H39.447v-6.7L36.463,17.3H36.4L33.43,12.766v6.668H30.262Z" transform="translate(-18.331 -4.704)" fill="#1a1549"/>
          <path id="Path_6" data-name="Path 6" d="M13.97,11.832A6.985,6.985,0,1,1,6.985,4.847a6.985,6.985,0,0,1,6.985,6.985" transform="translate(0 -2.936)" fill="#41b3cf"/>
          <path id="Path_7" data-name="Path 7" d="M8.3,16.679v-.027A3.69,3.69,0,0,1,12.014,12.8c2.543,0,3.712,1.863,3.712,4.025,0,.163,0,.354-.013.53H10.79a1.519,1.519,0,0,0,1.591,1.21,2.22,2.22,0,0,0,1.632-.748L15.441,19a3.852,3.852,0,0,1-3.2,1.5A3.7,3.7,0,0,1,8.3,16.679m5-.639c-.1-.816-.571-1.333-1.279-1.333-.68,0-1.142.53-1.278,1.333Z" transform="translate(-5.029 -7.756)" fill="#fff"/>
          <path id="Path_8" data-name="Path 8" d="M123.183,14.834h4.5V12.283h-4.5V10.516h6.268V7.766h-9.469V19.435h9.469V16.684h-6.268Z" transform="translate(-72.68 -4.704)" fill="#1a1549"/>
          <path id="Path_9" data-name="Path 9" d="M190.921,29.606h-4.637V21.816h8.579Z" transform="translate(-112.843 -13.215)" fill="#db706f"/>
          <path id="Path_10" data-name="Path 10" d="M214.813,29.7h-4.637V21.912h8.579Z" transform="translate(-127.316 -13.273)" fill="#008287"/>
          <path id="Path_11" data-name="Path 11" d="M238.705,29.7h-4.637V21.912h8.579Z" transform="translate(-141.788 -13.273)" fill="#2e527b"/>
        </g>
      </g>
    </g>
  </g>
</svg>
