<svg xmlns="http://www.w3.org/2000/svg" xmlns:xlink="http://www.w3.org/1999/xlink" width="151.003" height="52.833" viewBox="0 0 151.003 52.833">
  <defs>
    <clipPath id="clip-path">
      <path id="Path_34" data-name="Path 34" d="M0,0H151V52.833H0Z" fill="none"/>
    </clipPath>
  </defs>
  <g id="Group_8651" data-name="Group 8651" style="mix-blend-mode: normal;isolation: isolate">
    <g id="Mask_Group_2" data-name="Mask Group 2" clip-path="url(#clip-path)">
      <path id="Path_4175" data-name="Path 4175" d="M22.231-29.4H3.78V-4.466H22.409V-8.42H8.126v-6.661h12.5v-3.954H8.126v-6.412H22.231ZM49.089-4.466,40.041-17.218,48.733-29.4H43.71l-6.234,8.941-6.2-8.941H26.114l8.727,12.253L25.758-4.466H30.78l6.59-9.439,6.554,9.439Zm23.83-16.563a8.662,8.662,0,0,0-.659-3.455,7.469,7.469,0,0,0-1.888-2.636,8.372,8.372,0,0,0-2.992-1.692,12.4,12.4,0,0,0-3.936-.588H53.613V-4.466h4.346V-12.48h4.963a13.348,13.348,0,0,0,3.892-.552,9.558,9.558,0,0,0,3.178-1.621,7.616,7.616,0,0,0,2.142-2.672A8.317,8.317,0,0,0,72.919-21.029Zm-4.453.089a4.086,4.086,0,0,1-1.448,3.272,5.891,5.891,0,0,1-3.949,1.234H57.958v-9.012h5.111A6.289,6.289,0,0,1,67-24.32,4,4,0,0,1,68.466-20.94ZM95.858-29.4H77.407V-4.466H96.037V-8.42H81.753v-6.661h12.5v-3.954h-12.5v-6.412H95.858ZM122.431-4.466,115.7-13.905a9.273,9.273,0,0,0,2.4-1.015,7.388,7.388,0,0,0,1.87-1.6A7.218,7.218,0,0,0,121.2-18.7a8.176,8.176,0,0,0,.445-2.8,8.2,8.2,0,0,0-.641-3.295,6.752,6.752,0,0,0-1.834-2.493,8.387,8.387,0,0,0-2.921-1.567,12.66,12.66,0,0,0-3.865-.552H101.273V-4.466h4.346v-8.691h5.5l6.146,8.691ZM117.2-21.261a3.775,3.775,0,0,1-1.393,3.076,5.731,5.731,0,0,1-3.752,1.145h-6.432v-8.406h6.4a6.1,6.1,0,0,1,3.823,1.055A3.721,3.721,0,0,1,117.2-21.261Zm20.3-4.079h7.908V-29.4H125.174v4.061h7.908V-4.466H137.5Z" transform="translate(-0.574 50.037)" fill="#2e527b"/>
      <path id="Path_22" data-name="Path 22" d="M302.811,26.123a4.018,4.018,0,1,1-4.018-4.018,4.018,4.018,0,0,1,4.018,4.018" transform="translate(-173.728 -13.028)" fill="#db706f"/>
      <path id="Path_23" data-name="Path 23" d="M327.752,26.123a4.018,4.018,0,1,1-4.018-4.018,4.018,4.018,0,0,1,4.018,4.018" transform="translate(-188.427 -13.028)" fill="#008287"/>
      <path id="Path_24" data-name="Path 24" d="M352.692,26.123a4.018,4.018,0,1,1-4.018-4.018,4.018,4.018,0,0,1,4.018,4.018" transform="translate(-203.126 -13.028)" fill="#2e527b"/>
      <path id="Path_25" data-name="Path 25" d="M102.62,0H98.911L94.045,7.894l-2.9-4.706h-.26V8.4l3.091,4.723h.069l2.783-4.259V8.85l0,0Z" transform="translate(-51.858 0)" fill="#41b3cf"/>
      <path id="Path_26" data-name="Path 26" d="M110.3,12.991v6.991h3.351V7.871Z" transform="translate(-65.008 -4.639)" fill="#1a1549"/>
      <rect id="Rectangle_10" data-name="Rectangle 10" width="3.33" height="12.155" transform="translate(35.958 3.189)" fill="#1a1549"/>
      <path id="Path_27" data-name="Path 27" d="M61.741,17.814l1.875-2.24a6.259,6.259,0,0,0,3.942,1.459c.9,0,1.389-.312,1.389-.834v-.034c0-.5-.4-.781-2.049-1.163-2.587-.591-4.584-1.319-4.584-3.82v-.035c0-2.257,1.789-3.89,4.706-3.89a7.648,7.648,0,0,1,5,1.615l-1.684,2.378a6.1,6.1,0,0,0-3.4-1.2c-.816,0-1.216.347-1.216.781v.035c0,.556.417.8,2.1,1.181,2.8.607,4.532,1.51,4.532,3.785v.035c0,2.483-1.962,3.959-4.914,3.959a8.491,8.491,0,0,1-5.7-2.014" transform="translate(-36.387 -4.277)" fill="#1a1549"/>
      <path id="Path_28" data-name="Path 28" d="M30.262,7.765h3.559l2.9,4.706,2.9-4.706h3.559V19.92H39.83V12.939L36.722,17.7h-.069l-3.091-4.723V19.92h-3.3Z" transform="translate(-17.835 -4.576)" fill="#1a1549"/>
      <path id="Path_29" data-name="Path 29" d="M14.552,12.122A7.276,7.276,0,1,1,7.276,4.846a7.276,7.276,0,0,1,7.276,7.276" transform="translate(-0.001 -2.856)" fill="#41b3cf"/>
      <path id="Path_30" data-name="Path 30" d="M8.3,16.84v-.028A3.843,3.843,0,0,1,12.169,12.8c2.649,0,3.867,1.94,3.867,4.192,0,.17,0,.368-.014.552H10.894a1.582,1.582,0,0,0,1.657,1.261,2.312,2.312,0,0,0,1.7-.779l1.487,1.232a4.012,4.012,0,0,1-3.328,1.558A3.856,3.856,0,0,1,8.3,16.84m5.212-.666c-.1-.85-.6-1.388-1.332-1.388-.708,0-1.19.552-1.331,1.388Z" transform="translate(-4.893 -7.546)" fill="#fff"/>
      <path id="Path_31" data-name="Path 31" d="M123.317,15.127H128V12.471h-4.688V10.63h6.529V7.765h-9.863V19.92h9.863V17.055h-6.529Z" transform="translate(-70.712 -4.577)" fill="#1a1549"/>
    </g>
  </g>
</svg>
