<svg xmlns="http://www.w3.org/2000/svg" xmlns:xlink="http://www.w3.org/1999/xlink" width="169.339" height="52.462" viewBox="0 0 169.339 52.462">
  <defs>
    <clipPath id="clip-path">
      <path id="Path_33" data-name="Path 33" d="M0,0H169.339V52.462H0Z" fill="none"/>
    </clipPath>
    <clipPath id="clip-path-2">
      <rect id="Rectangle_9" data-name="Rectangle 9" width="169.339" height="52.462" fill="none"/>
    </clipPath>
  </defs>
  <g id="Group_8650" data-name="Group 8650" style="mix-blend-mode: normal;isolation: isolate">
    <path id="Path_12" data-name="Path 12" d="M339.971,13.726h-1.987v11.4h1.987l5.7-5.7Z" transform="translate(-200.168 -8.129)" fill="#db706f"/>
    <g id="Group_7" data-name="Group 7">
      <g id="Mask_Group_1" data-name="Mask Group 1" clip-path="url(#clip-path)">
        <path id="Path_4174" data-name="Path 4174" d="M7.092-23.794a2.594,2.594,0,0,1,1.047-2.077,4.514,4.514,0,0,1,2.932-.855,8.986,8.986,0,0,1,3.316.646A14.974,14.974,0,0,1,17.7-24.213l2.3-3.246a14.38,14.38,0,0,0-4.031-2.286,14,14,0,0,0-4.834-.785,10.618,10.618,0,0,0-3.347.506,7.6,7.6,0,0,0-2.623,1.448,6.813,6.813,0,0,0-1.713,2.251,6.694,6.694,0,0,0-.623,2.914,6.945,6.945,0,0,0,.542,2.9,5.546,5.546,0,0,0,1.575,2.024,8.866,8.866,0,0,0,2.554,1.4,29.462,29.462,0,0,0,3.481,1.012,28.4,28.4,0,0,1,2.782.8,7.04,7.04,0,0,1,1.68.82,2.373,2.373,0,0,1,.84.96,2.951,2.951,0,0,1,.227,1.187,2.648,2.648,0,0,1-1.169,2.269,5.323,5.323,0,0,1-3.158.838,9.9,9.9,0,0,1-4.118-.82,15.007,15.007,0,0,1-3.595-2.356L1.892-9.311A14.769,14.769,0,0,0,6.673-6.362a15.4,15.4,0,0,0,5.41.96,12.037,12.037,0,0,0,3.522-.489A7.857,7.857,0,0,0,18.35-7.321a6.577,6.577,0,0,0,1.783-2.3,7.213,7.213,0,0,0,.64-3.106,6.492,6.492,0,0,0-.507-2.67,5.723,5.723,0,0,0-1.487-1.989,8.514,8.514,0,0,0-2.467-1.448A27.553,27.553,0,0,0,12.9-19.92q-1.749-.419-2.887-.8a7.116,7.116,0,0,1-1.785-.838,2.569,2.569,0,0,1-.892-.977A2.946,2.946,0,0,1,7.092-23.794Zm30.887-6.561H34L23.251-5.751h4.4l2.513-5.9H41.713l2.478,5.9h4.537Zm2.164,14.9H31.732l4.188-9.772Zm24.919-14.9H61.083L50.333-5.751h4.4l2.513-5.9H68.8l2.478,5.9h4.537Zm2.164,14.9H58.814L63-25.225Zm33.5,9.7L94.133-15a9.086,9.086,0,0,0,2.356-.995,7.239,7.239,0,0,0,1.832-1.571,7.072,7.072,0,0,0,1.2-2.129,8.011,8.011,0,0,0,.436-2.74,8.031,8.031,0,0,0-.628-3.228,6.615,6.615,0,0,0-1.8-2.443,8.217,8.217,0,0,0-2.862-1.536,12.4,12.4,0,0,0-3.787-.541H80v24.43h4.258v-8.516h5.391l6.021,8.516ZM95.6-22.206a3.7,3.7,0,0,1-1.365,3.014,5.615,5.615,0,0,1-3.676,1.121h-6.3v-8.236h6.266a5.98,5.98,0,0,1,3.746,1.034A3.645,3.645,0,0,1,95.6-22.206Zm19.893-4h7.748v-3.979H103.417V-26.2h7.748V-5.751h4.328Zm28.269,10.156v10.3h4.258v-24.43h-4.258v10.156H132.035V-30.181h-4.258v24.43h4.258v-10.3Zm10.784-14.135v24.43H158.8v-24.43Z" transform="translate(-0.355 50.624)" fill="#db706f"/>
      </g>
    </g>
    <path id="Path_13" data-name="Path 13" d="M389.755,13.726h-1.987v11.4h1.987l5.7-5.7Z" transform="translate(-229.652 -8.129)" fill="#2e527b"/>
    <path id="Path_14" data-name="Path 14" d="M364.911,13.726h-1.987v11.4h1.987l5.7-5.7Z" transform="translate(-214.938 -8.129)" fill="#008287"/>
    <path id="Path_15" data-name="Path 15" d="M87.991,3.166h0ZM98.834,0,94,7.839,91.124,3.166h-.259V8.339l3.069,4.69H94L96.766,8.8V8.788l0,0L102.517,0Z" transform="translate(-52.112)" fill="#41b3cf"/>
    <path id="Path_16" data-name="Path 16" d="M110.3,12.956V19.9h3.327V7.871Z" transform="translate(-65.326 -4.662)" fill="#1a1549"/>
    <rect id="Rectangle_8" data-name="Rectangle 8" width="3.306" height="12.069" transform="translate(35.706 3.166)" fill="#1a1549"/>
    <g id="Group_9" data-name="Group 9">
      <g id="Group_8" data-name="Group 8" clip-path="url(#clip-path-2)">
        <path id="Path_17" data-name="Path 17" d="M61.741,17.741,63.6,15.517a6.215,6.215,0,0,0,3.915,1.448c.9,0,1.379-.31,1.379-.828V16.1c0-.5-.4-.776-2.034-1.155-2.569-.586-4.552-1.31-4.552-3.793V11.12c0-2.241,1.777-3.862,4.673-3.862a7.593,7.593,0,0,1,4.966,1.6l-1.672,2.362a6.057,6.057,0,0,0-3.38-1.189c-.81,0-1.207.345-1.207.776v.035c0,.552.413.793,2.086,1.173,2.776.6,4.5,1.5,4.5,3.758v.035c0,2.466-1.948,3.931-4.88,3.931a8.43,8.43,0,0,1-5.655-2" transform="translate(-36.565 -4.298)" fill="#1a1549"/>
        <path id="Path_18" data-name="Path 18" d="M30.262,7.766H33.8l2.88,4.673,2.88-4.673H43.09V19.835H39.762V12.9l-3.086,4.724h-.069l-3.069-4.69v6.9H30.262Z" transform="translate(-17.922 -4.599)" fill="#1a1549"/>
        <path id="Path_19" data-name="Path 19" d="M14.449,12.072A7.224,7.224,0,1,1,7.224,4.847a7.225,7.225,0,0,1,7.225,7.225" transform="translate(0 -2.871)" fill="#41b3cf"/>
        <path id="Path_20" data-name="Path 20" d="M8.3,16.812v-.028a3.816,3.816,0,0,1,3.839-3.98c2.63,0,3.839,1.927,3.839,4.163,0,.169,0,.366-.014.548H10.875a1.571,1.571,0,0,0,1.646,1.252,2.3,2.3,0,0,0,1.688-.774l1.477,1.224a3.984,3.984,0,0,1-3.3,1.547A3.829,3.829,0,0,1,8.3,16.812m5.176-.661c-.1-.844-.591-1.378-1.322-1.378-.7,0-1.181.548-1.322,1.378Z" transform="translate(-4.917 -7.583)" fill="#fff"/>
        <path id="Path_21" data-name="Path 21" d="M123.293,15.076h4.655V12.438h-4.655V10.611h6.483V7.766h-9.794V19.835h9.794V16.99h-6.483Z" transform="translate(-71.058 -4.599)" fill="#1a1549"/>
      </g>
    </g>
  </g>
</svg>
